<svg xmlns="http://www.w3.org/2000/svg" height="798pt" version="1.1" viewBox="-6 0 798 798.75168" width="798pt">
<g id="surface1">
<path d="M 642.292969 569.945312 C 587.480469 569.945312 541.582031 608.691406 530.46875 660.238281 L 460.480469 660.238281 C 447.601562 600.464844 388.769531 559.773438 326.359375 572.148438 L 235.09375 146.144531 C 224.492188 96.722656 180.132812 60.851562 129.589844 60.851562 L 55.03125 60.851562 C 41.71875 60.851562 30.914062 71.660156 30.914062 84.976562 C 30.914062 98.304688 41.71875 109.085938 55.03125 109.085938 L 129.589844 109.085938 C 157.527344 109.085938 182.058594 128.929688 187.929688 156.257812 L 281.273438 591.976562 C 252.804688 612.8125 234.269531 646.441406 234.269531 684.359375 C 234.269531 747.429688 285.585938 798.75 348.660156 798.75 C 403.464844 798.75 449.371094 760.003906 460.480469 708.472656 L 530.464844 708.472656 C 541.574219 760.003906 587.480469 798.75 642.292969 798.75 C 705.363281 798.75 756.6875 747.429688 756.6875 684.359375 C 756.6875 621.261719 705.363281 569.945312 642.292969 569.945312 Z M 347.714844 722.539062 C 326.613281 722.539062 309.527344 705.449219 309.527344 684.355469 C 309.527344 663.261719 326.613281 646.15625 347.714844 646.15625 C 368.804688 646.15625 385.914062 663.261719 385.914062 684.355469 C 385.914062 705.449219 368.804688 722.539062 347.714844 722.539062 Z M 642.292969 722.539062 C 621.199219 722.539062 604.09375 705.449219 604.09375 684.355469 C 604.09375 663.261719 621.199219 646.15625 642.292969 646.15625 C 663.386719 646.15625 680.476562 663.261719 680.476562 684.355469 C 680.476562 705.449219 663.386719 722.539062 642.292969 722.539062 Z M 642.292969 722.539062 " style=" stroke:none;fill-rule:nonzero;fill:rgb(0%,0%,0%);fill-opacity:1;" />
<path d="M 207.328125 649.871094 L 112.21875 649.871094 C 98.902344 649.871094 88.105469 639.074219 88.105469 625.761719 C 88.105469 612.4375 98.902344 601.636719 112.21875 601.636719 L 207.328125 601.636719 C 220.640625 601.636719 231.441406 612.4375 231.441406 625.761719 C 231.441406 639.074219 220.648438 649.871094 207.328125 649.871094 Z M 207.328125 649.871094 " style=" stroke:none;fill-rule:nonzero;fill:rgb(0%,0%,0%);fill-opacity:1;" />
<path d="M 176.171875 757.277344 L 24.492188 757.277344 C 11.175781 757.277344 0.375 746.480469 0.375 733.160156 C 0.375 719.835938 11.175781 709.046875 24.492188 709.046875 L 176.171875 709.046875 C 189.488281 709.046875 200.289062 719.835938 200.289062 733.160156 C 200.289062 746.480469 189.488281 757.277344 176.171875 757.277344 Z M 176.171875 757.277344 " style=" stroke:none;fill-rule:nonzero;fill:rgb(0%,0%,0%);fill-opacity:1;" />
<path d="M 487.554688 408.78125 L 501.753906 533.753906 L 602.257812 533.753906 L 616.464844 408.78125 Z M 487.554688 408.78125 " style=" stroke:none;fill-rule:nonzero;fill:rgb(0%,0%,0%);fill-opacity:1;" />
<path d="M 670.484375 360.542969 L 765.742188 360.542969 L 786.484375 263.722656 C 789.703125 248.707031 778.261719 234.550781 762.90625 234.550781 L 684.808594 234.550781 Z M 670.484375 360.542969 " style=" stroke:none;fill-rule:nonzero;fill:rgb(0%,0%,0%);fill-opacity:1;" />
<path d="M 482.070312 360.542969 L 621.945312 360.542969 L 636.273438 234.550781 C 555.621094 234.550781 538.507812 234.550781 467.742188 234.550781 Z M 482.070312 360.542969 " style=" stroke:none;fill-rule:nonzero;fill:rgb(0%,0%,0%);fill-opacity:1;" />
<path d="M 534.988281 91.257812 C 548.308594 91.257812 559.105469 102.058594 559.105469 115.375 L 559.105469 186.316406 C 565.324219 186.316406 647.484375 186.316406 728.304688 186.316406 L 728.304688 24.117188 C 728.304688 10.796875 717.507812 0 704.1875 0 L 413.242188 0 C 399.921875 0 389.125 10.796875 389.125 24.117188 L 389.125 91.257812 Z M 534.988281 91.257812 " style=" stroke:none;fill-rule:nonzero;fill:rgb(0%,0%,0%);fill-opacity:1;" />
<path d="M 665.011719 408.78125 L 650.804688 533.753906 L 709.144531 533.753906 C 720.515625 533.753906 730.339844 525.8125 732.710938 514.683594 L 755.40625 408.78125 Z M 665.011719 408.78125 " style=" stroke:none;fill-rule:nonzero;fill:rgb(0%,0%,0%);fill-opacity:1;" />
<path d="M 419.203125 234.550781 C 414.484375 234.550781 355.484375 234.550781 303.34375 234.550781 L 330.339844 360.542969 L 433.523438 360.542969 Z M 419.203125 234.550781 " style=" stroke:none;fill-rule:nonzero;fill:rgb(0%,0%,0%);fill-opacity:1;" />
<path d="M 439.007812 408.78125 L 340.679688 408.78125 L 367.457031 533.753906 L 453.214844 533.753906 Z M 439.007812 408.78125 " style=" stroke:none;fill-rule:nonzero;fill:rgb(0%,0%,0%);fill-opacity:1;" />
<path d="M 510.871094 139.488281 L 327.949219 139.488281 L 327.949219 186.316406 C 336.765625 186.316406 493.210938 186.316406 510.871094 186.316406 Z M 510.871094 139.488281 " style=" stroke:none;fill-rule:nonzero;fill:rgb(0%,0%,0%);fill-opacity:1;" />
</g>
</svg>